<svg height="24" viewBox="0 0 24 24" width="24" xmlns="http://www.w3.org/2000/svg"><path d="m19 6v-2h2v2h2v2h-2v2h-2v-2h-2v-2zm-12.06298044-.1546242c.07084846-.09849392.14953639-.21906956.24987506-.38165444.05622667-.09110751.26137516-.4304575.29490794-.48530938.828983-1.35602465 1.43159223-1.97841198 2.51819744-1.97841198h5v2h-5c-.08672814 0-.35949798.28172235-.81180248 1.02158802-.0290343.04749339-.23723639.39189456-.29932605.49250223-.12295301.19922828-.22512451.35578842-.32825834.49916565-.44824423.62315167-.89627106.9867441-1.56061283.9867441h-3.0000003c-.55228475 0-1 .44771525-1 1v9c0 .5522847.44771525 1 1 1h16c.5522847 0 1-.4477153 1-1v-6h2v6c0 1.6568542-1.3431458 3-3 3h-16c-1.65685425 0-3-1.3431458-3-3v-9c0-1.65685425 1.34314575-3 3-3h2.81619668c.03329281-.03806051.07410126-.08967154.12082288-.1546242zm5.06298044 12.1546242c-2.76142375 0-5-2.2385763-5-5s2.23857625-5 5-5c2.7614237 0 5 2.2385763 5 5s-2.2385763 5-5 5zm0-2c1.6568542 0 3-1.3431458 3-3s-1.3431458-3-3-3-3 1.3431458-3 3 1.3431458 3 3 3z" fill-rule="evenodd"/></svg>