<svg viewBox="0 0 1047.128 1045.334" xmlns="http://www.w3.org/2000/svg"><path d="M168.006 199.112h533.338c92.745.106 167.9 75.262 168.006 167.996v355.57c-.106 92.744-75.262 167.9-167.996 168.005h-53.996v154.65l-309.95-154.65H168.006C75.26 890.577.106 815.42 0 722.687v-355.57c.106-92.744 75.262-167.9 167.996-168.005h.01zm533.338 621.763c54.212-.053 98.144-43.986 98.198-98.192V367.12c-.053-54.213-43.986-98.145-98.192-98.2H168.007c-54.212.054-98.144 43.987-98.198 98.193v355.564c.052 54.212 43.985 98.144 98.19 98.198h186.163L577.55 932.57V820.874zm179.874-107.97h-46.772v-69.81h46.26c53.105-1.182 95.8-44.106 96.614-97.19V189.34c0-54.233-43.964-98.198-98.197-98.198H345.785c-54.233 0-98.198 43.965-98.198 98.198v46.54h-69.81v-46.54c0-92.787 75.22-168.006 168.007-168.006h533.338c92.787 0 168.006 75.22 168.006 168.006V546.06c-.645 91.477-74.3 165.54-165.556 166.84l-.123.002z"/></svg>